# xmcd CD database file
#
# Track frame offsets:
#	150
#	17100
#	38725
#	62825
#	81450
#	102375
#	119963
#	138000
#	159838
#	185100
#	205250
#	224125
#	246938
#	268213
#	291050
#
# Disc length: 4170 seconds
#
# Revision: 2
# Processed by: cddbd v1.5.2PL0 Copyright (c) Steve Scherf et al.
# Submitted via: CDex 1.51
#
DISCID=ef10480f
DTITLE=????? - TREASURE COLLECTION
DYEAR=1900
DGENRE=New Age
TTITLE0=???
TTITLE1=????
TTITLE2=Goodbye Day
TTITLE3=????????
TTITLE4=ORACION ????
TTITLE5=??????
TTITLE6=???????
TTITLE7=??????
TTITLE8=??????????
TTITLE9=????????
TTITLE10=???
TTITLE11=????
TTITLE12=???Door
TTITLE13=???????(??)
TTITLE14=??????????????
EXTD=
EXTT0=
EXTT1=
EXTT2=
EXTT3=
EXTT4=
EXTT5=
EXTT6=
EXTT7=
EXTT8=
EXTT9=
EXTT10=
EXTT11=
EXTT12=
EXTT13=
EXTT14=
PLAYORDER=
